<!-- Icons: @vicons/tabler (MIT), generated from the installed icon library. -->
<svg xmlns="http://www.w3.org/2000/svg"><symbol id="monitor" viewBox="0 0 24 24"><g fill="none" stroke="currentColor" stroke-width="2" stroke-linecap="round" stroke-linejoin="round"><rect x="3" y="4" width="18" height="12" rx="1"></rect><path d="M7 20h10"></path><path d="M9 16v4"></path><path d="M15 16v4"></path></g></symbol><symbol id="link" viewBox="0 0 24 24"><g fill="none" stroke="currentColor" stroke-width="2" stroke-linecap="round" stroke-linejoin="round"><path d="M10 14a3.5 3.5 0 0 0 5 0l4-4a3.5 3.5 0 0 0-5-5l-.5.5"></path><path d="M14 10a3.5 3.5 0 0 0-5 0l-4 4a3.5 3.5 0 0 0 5 5l.5-.5"></path></g></symbol><symbol id="check" viewBox="0 0 24 24"><path d="M5 12l5 5L20 7" fill="none" stroke="currentColor" stroke-width="2" stroke-linecap="round" stroke-linejoin="round"></path></symbol><symbol id="circle" viewBox="0 0 24 24"><circle cx="12" cy="12" r="9" fill="none" stroke="currentColor" stroke-width="2" stroke-linecap="round" stroke-linejoin="round"></circle></symbol><symbol id="loader" viewBox="0 0 24 24"><g fill="none" stroke="currentColor" stroke-width="2" stroke-linecap="round" stroke-linejoin="round"><path d="M12 6V3"></path><path d="M16.25 7.75L18.4 5.6"></path><path d="M18 12h3"></path><path d="M16.25 16.25l2.15 2.15"></path><path d="M12 18v3"></path><path d="M7.75 16.25L5.6 18.4"></path><path d="M6 12H3"></path><path d="M7.75 7.75L5.6 5.6"></path></g></symbol><symbol id="eye" viewBox="0 0 24 24"><g fill="none" stroke="currentColor" stroke-width="2" stroke-linecap="round" stroke-linejoin="round"><circle cx="12" cy="12" r="2"></circle><path d="M22 12c-2.667 4.667-6 7-10 7s-7.333-2.333-10-7c2.667-4.667 6-7 10-7s7.333 2.333 10 7"></path></g></symbol><symbol id="arrow" viewBox="0 0 24 24"><g fill="none" stroke="currentColor" stroke-width="2" stroke-linecap="round" stroke-linejoin="round"><path d="M5 12h14"></path><path d="M13 18l6-6"></path><path d="M13 6l6 6"></path></g></symbol><symbol id="chevron" viewBox="0 0 24 24"><path d="M9 6l6 6l-6 6" fill="none" stroke="currentColor" stroke-width="2" stroke-linecap="round" stroke-linejoin="round"></path></symbol></svg>
